<svg xmlns="http://www.w3.org/2000/svg" width="44" height="44" viewBox="0 0 44 44">
  <path fill-rule="evenodd" d="M40.7418766,7.95289968 L30.474919,17.2858463 C30.2673575,17.4408717 30.214943,17.698549 30.214943,17.9562263 L33.0537137,39.251266 C33.1040317,39.5613168 33.0033958,39.8189941 32.7958343,40.024298 L30.9885814,41.8301341 C30.9382634,41.8804126 30.8858489,41.8804126 30.8858489,41.8804126 C30.8334344,41.8804126 30.7831164,41.8804126 30.7831164,41.7777607 L22.6295126,25.5357102 C22.5267801,25.3283114 22.3192186,25.1753809 22.0613391,25.1230075 L21.9082887,25.1230075 C21.7007272,25.1230075 21.5455802,25.1753809 21.3925298,25.3283114 L12.5156055,33.1675675 C12.3080439,33.3225929 12.2053115,33.5802702 12.257726,33.8379475 L12.9286319,39.1988926 L12.9286319,39.251266 C12.9789499,39.5613168 12.8762174,39.8692726 12.6707525,40.1269499 L12.3604585,40.4370007 C12.3080439,40.4893741 12.257726,40.4893741 12.257726,40.4893741 C12.2053115,40.4893741 12.2053115,40.4893741 12.1549935,40.4370007 L8.80256037,34.9210302 C8.74804926,34.8162833 8.64531679,34.7136314 8.5446809,34.6633529 L3.02018975,31.3114529 C2.96777522,31.2590794 2.96777522,31.2590794 2.96777522,31.206706 C2.96777522,31.1564275 2.96777522,31.1040541 3.02018975,31.1040541 L3.33048375,30.7960983 C3.5359487,30.5886994 3.89656064,30.4860475 4.20685464,30.5384209 L4.26136575,30.5384209 L9.62442016,31.206706 C9.88229963,31.2590794 10.1422757,31.1564275 10.2974227,30.9490287 L18.1910505,22.0287848 C18.3461975,21.8758544 18.398612,21.6160821 18.3461975,21.3584048 C18.2937829,21.1007275 18.1428291,20.9457021 17.933171,20.7927717 L1.62805991,12.7482116 L1.52323086,12.6455597 C1.52323086,12.5931863 1.52323086,12.5408128 1.57564538,12.5408128 L3.3808017,10.7370716 C3.58836322,10.5317678 3.89656064,10.4270209 4.15444011,10.4793943 L25.5186013,13.2635663 C25.7764808,13.3159397 26.0343603,13.2111928 26.1916039,13.005889 L35.529776,2.74488504 C36.2530965,1.91947966 37.3370289,1.50677697 38.4209613,1.55915041 C40.3288501,1.66180235 41.8279056,3.15758773 41.8782235,5.01370236 C41.980956,6.14706355 41.515515,7.17986774 40.7418766,7.95289968 M38.5236938,0.0109915942 C36.9743204,-0.0916603436 35.4794581,0.528441158 34.3955256,1.71417579 L25.315233,11.6651289 L4.41441617,8.880957 C3.63868117,8.77830506 2.86713933,9.03598237 2.29686928,9.60371044 L0.491712965,11.4074516 C0.131101019,11.7677809 -0.0764605085,12.3355089 0.0262719645,12.8508636 C0.131101019,13.3662182 0.439298438,13.8312943 0.955057384,14.0889716 L16.3858941,21.720829 L9.42105179,29.6082687 L4.46473411,28.9902621 C3.63868117,28.8352368 2.8147248,29.0929141 2.24655133,29.6606421 L1.93625733,29.9706929 C1.57564538,30.3310221 1.37018044,30.8463768 1.47500949,31.3617314 C1.52323086,31.877086 1.83352486,32.3421621 2.24655133,32.5998395 L7.6137989,35.8490875 L10.8634996,41.2100326 C11.121379,41.6751087 11.58682,41.932786 12.102579,41.9830645 C12.6183379,42.035438 13.1340969,41.8804126 13.4947088,41.5200834 L13.8050028,41.2100326 C14.3731763,40.6423045 14.6310558,39.8189941 14.4780054,38.9935887 L13.8574174,34.0432514 L21.7007272,27.0817741 L29.3406687,42.5005141 C29.5985481,42.9634953 30.059796,43.3259195 30.5755549,43.4285714 L30.8334344,43.4285714 C31.2988754,43.4285714 31.7119019,43.2735461 32.0200993,42.9111219 L33.8273522,41.1073807 C34.3955256,40.5396526 34.6534051,39.7666207 34.5506726,38.9935887 L31.7622198,18.1112517 L41.7230765,9.03598237 C42.8573269,8.00527312 43.4779149,6.4571143 43.4255004,4.91105042 C43.3227679,2.27980891 41.2094142,0.16601697 38.5236938,0.0109915942"/>
</svg>
