<svg xmlns="http://www.w3.org/2000/svg" width="45" height="32" viewBox="0 0 45 32">
  <path d="M30.4350675,0.0119870682 C30.3101488,0.0272244872 30.1876346,0.0593469131 30.0705753,0.107554566 L15.7187097,6.12827124 L3.88791259,6.12827124 C1.75922809,6.12827124 0,7.97329553 0,10.2057957 L0,18.3608702 C0,20.5933449 1.75922809,22.438359 3.88791259,22.438359 L4.8598911,22.438359 L4.8598911,28.5546686 C4.8598911,29.284873 5.07108033,30.0668816 5.60406183,30.6730314 C6.13704334,31.2792321 6.96470997,31.612798 7.77582566,31.612798 L9.7197822,31.612798 C10.5308979,31.612798 11.3585645,31.2792321 11.8915455,30.6730314 C12.424527,30.0668816 12.6357168,29.284873 12.6357168,28.5546686 L12.6357168,22.438359 L15.7642714,22.438359 L30.0705753,28.4431571 C30.5200051,28.6337456 31.0303637,28.5776128 31.4323138,28.2933836 C31.8342639,28.0091544 32.075238,27.5340005 32.0752807,27.0255785 L32.0752807,14.2833151 L32.0752807,1.54105684 C32.0785314,1.10014166 31.9001578,0.679212939 31.5859284,0.386276203 C31.271699,0.0933394672 30.852199,-0.0430925452 30.4350675,0.0119870682 L30.4350675,0.0119870682 Z M41.2086177,3.79339893 C41.0044262,3.81598473 40.8083455,3.88701417 40.6362447,4.00073873 L33.6587463,8.42400987 C33.2611376,8.67549955 33.0262109,9.12321838 33.0426223,9.59820718 C33.0590338,10.073196 33.3242847,10.5031355 33.7382752,10.725776 C34.1522657,10.9484166 34.6519638,10.9298601 35.0487945,10.6771094 L42.0262934,6.25384271 C42.5582055,5.93473468 42.7974627,5.28165524 42.6000645,4.68766999 C42.4026662,4.09368473 41.8224458,3.72078203 41.2086177,3.79339893 L41.2086177,3.79339893 Z M29.1593461,3.80280905 L29.1593461,14.2833151 L29.1593461,24.7478771 L17.4956074,19.8580416 L17.4956074,8.69264962 L29.1593461,3.80280905 Z M3.88791259,9.18641587 L9.7197822,9.18641587 L9.7197822,19.3802296 L6.16598645,19.3802296 L3.88791259,19.3802296 C3.32421912,19.3802296 2.91593456,18.9520293 2.91593456,18.3608702 L2.91593456,10.2057957 C2.91593456,9.61461109 3.32421912,9.18641587 3.88791259,9.18641587 Z M12.6357168,9.18641587 L14.5796728,9.18641587 L14.5796728,19.3802296 L12.6357168,19.3802296 L12.6357168,9.18641587 L12.6357168,9.18641587 Z M36.2541094,13.5384137 C35.7867005,13.5631055 35.3677841,13.8388457 35.1551621,14.2617655 C34.9425401,14.6846854 34.9685148,15.1905333 35.2233018,15.5887612 C35.4780888,15.9869891 35.9229799,16.2170967 36.3903888,16.1924047 L43.3678872,16.1924047 C43.8394581,16.1987899 44.2779266,15.9472717 44.515548,15.5340734 C44.7531694,15.120875 44.7531694,14.6099433 44.515548,14.196745 C44.2779266,13.7835466 43.8394581,13.5320285 43.3678872,13.5384137 L36.3903888,13.5384137 C36.3449932,13.5360125 36.2995051,13.5360125 36.2541094,13.5384137 Z M34.2992587,18.8325058 C33.7201285,18.8501499 33.2214023,19.2520166 33.0734867,19.8202159 C32.925571,20.3884153 33.1636939,20.9876238 33.6587463,21.292954 L40.6362447,25.7162207 C41.0330855,25.969367 41.5330325,25.9881676 41.9472648,25.7655218 C42.3614971,25.542876 42.6268851,25.1127152 42.6431965,24.6375036 C42.6595079,24.1622919 42.4242568,23.7144522 42.0262934,23.4631256 L35.0487945,19.0398588 C34.8254097,18.8953627 34.5640394,18.8230566 34.2992587,18.8325058 L34.2992587,18.8325058 Z M7.77582566,22.438359 L9.7197822,22.438359 L9.7197822,28.5546686 L7.77582566,28.5546686 L7.77582566,22.438359 Z"/>
</svg>
