<svg xmlns="http://www.w3.org/2000/svg" width="60" height="45" viewBox="0 0 60 45">
  <path fill-rule="evenodd" stroke="#000" stroke-width=".5" d="M10.1185219,31.5587312 L15.4610742,26.3273557 L17.5269419,30.3297218 L10.1185219,31.5587312 Z M12.3562084,18.9977702 L45.856821,14.7791146 L15.4630956,23.701561 L15.4610742,23.701561 L15.4509672,23.7056038 C15.4206462,23.7136894 15.3923467,23.7298606 15.3620257,23.741989 C15.3600043,23.741989 15.3559615,23.7440104 15.3539401,23.7460318 C15.3418118,23.7500746 15.3317048,23.7541173 15.3215978,23.7581601 C15.3054266,23.7662457 15.2892554,23.7702885 15.2730843,23.7763527 C15.2730843,23.7783741 15.2710629,23.7783741 15.2690415,23.7803955 C15.2286135,23.8006095 15.190207,23.828909 15.1518004,23.8551872 C15.1356293,23.8673156 15.1174367,23.8774226 15.1012655,23.8895509 C15.0871157,23.8996579 15.0770088,23.9138077 15.0648804,23.9239147 C15.0466878,23.9421073 15.0204096,23.9481715 15.0022171,23.966364 L9.25336398,29.5959547 L12.3562084,18.9977702 Z M12.1419403,17.0006299 L3.98964617,3.1904456 L51.5510963,12.0381003 L12.1419403,17.0006299 Z M25.6165727,41.6273097 L17.1853258,25.2903791 L54.3507312,14.3808994 L25.6165727,41.6273097 Z M59.054522,11.9532016 C59.0120727,11.807661 58.937281,11.6823344 58.8442967,11.5752004 C58.830147,11.5610506 58.8139758,11.5469008 58.799826,11.5307297 C58.7957832,11.5266869 58.789719,11.5206227 58.7856762,11.5165799 C58.7836548,11.5165799 58.7836548,11.5145585 58.7816334,11.5145585 C58.7593981,11.4943445 58.7391841,11.4721091 58.7169487,11.4539166 C58.692692,11.4337026 58.6684352,11.4175314 58.642157,11.4013602 C58.6340714,11.3952961 58.6239645,11.3912533 58.6158789,11.3851891 C58.6057719,11.3791249 58.5956649,11.3710393 58.5855579,11.3649751 C58.5794937,11.3629537 58.5754509,11.3589109 58.5693867,11.3548681 C58.5431086,11.3407183 58.514809,11.3265686 58.4885309,11.3144402 C58.4824667,11.3124188 58.4784239,11.3103974 58.4723597,11.308376 C58.4622527,11.3023118 58.4501243,11.298269 58.4400173,11.2942262 C58.387461,11.2760336 58.3349047,11.2598625 58.2823484,11.2477341 C58.2762842,11.2477341 58.27022,11.2436913 58.2641558,11.2436913 L2.18251725,0.811261326 C2.1501749,0.805197135 2.11783254,0.805197135 2.08549019,0.803175738 C2.07538321,0.801154341 2.06325483,0.799132944 2.05112644,0.799132944 C1.55386278,0.770833386 1.10511264,1.11244948 1.01212838,1.61375594 C1.00404279,1.65620527 1.00404279,1.69865461 1.0020214,1.74110395 L1.0020214,1.74312535 C0.997978603,1.80578865 1,1.86643056 1.00808559,1.92707247 C1.00808559,1.93111527 1.00808559,1.93717946 1.01010699,1.94122225 C1.01819257,1.99984277 1.03234235,2.05644188 1.05053493,2.1110196 C1.05255632,2.11910519 1.05457772,2.12921217 1.05862051,2.13729776 C1.07681309,2.18985408 1.10106985,2.24038901 1.12734801,2.28890254 C1.13139081,2.29496673 1.1354336,2.30305232 1.13947639,2.3111379 L10.5046087,18.177083 L6.30414574,32.5168734 C6.27180339,32.5674083 6.24148244,32.6179432 6.21924707,32.6745423 C6.21520428,32.6846493 6.21318288,32.6947563 6.20914009,32.7028419 C6.16466935,32.8119973 6.13839119,32.9292384 6.13636979,33.0525436 C6.13636979,33.0626506 6.13839119,33.0707361 6.13839119,33.0788217 C6.13839119,33.1313781 6.14041259,33.181913 6.14849817,33.2344693 C6.15456237,33.2728758 6.17679773,33.3052182 6.18690472,33.3416033 C6.2010545,33.3961811 6.21722567,33.446716 6.24148244,33.4972509 C6.27584619,33.5679998 6.31829552,33.6286417 6.36680905,33.6892836 C6.38904442,33.7155618 6.39713001,33.7479041 6.42138677,33.7741823 C6.43351515,33.7842893 6.44766493,33.7863107 6.45979331,33.7984391 C6.52649942,33.8611024 6.6012911,33.9055731 6.68214698,33.9500438 C6.71448934,33.966215 6.74278889,33.9904718 6.77513125,34.0026002 C6.89035088,34.0470709 7.0116347,34.0753705 7.13898271,34.0753705 L7.13898271,34.0753705 L7.13898271,34.0753705 C7.19356043,34.0753705 7.25015954,34.0693063 7.30271587,34.0612207 L18.4931697,32.2035568 L24.3875634,43.6224285 C24.3956489,43.6446639 24.4097987,43.6648779 24.4199057,43.6871132 L24.4461839,43.7356268 C24.4583123,43.7598835 24.4785262,43.7780761 24.492676,43.8023329 C24.5290612,43.8609534 24.5512965,43.9236167 24.6018314,43.976173 C24.7999284,44.1843769 25.0647314,44.2894895 25.3315558,44.2894895 C25.3679409,44.2894895 25.4002833,44.2733184 25.4366684,44.2692756 C25.4993317,44.2632114 25.561995,44.2531044 25.6246583,44.2328904 C25.6671077,44.220762 25.7055142,44.2086337 25.7459422,44.1884197 C25.7641347,44.1803341 25.7823273,44.1783127 25.8005199,44.1702271 C25.8753116,44.1297992 25.9420177,44.0812856 26.0026596,44.0267079 C26.0087238,44.0206437 26.0168093,44.0186223 26.0208521,44.0145795 L58.6805636,13.044756 C59.0120727,12.8021884 59.1758058,12.3716308 59.054522,11.9532016 Z"/>
</svg>
