<svg xmlns="http://www.w3.org/2000/svg" width="39" height="40" viewBox="0 0 39 40">
  <path fill-rule="evenodd" d="M19.0855476,26.8247476 L30.8633302,38.6025302 C32.7208186,40.4658233 35.7392372,40.4658233 37.6025302,38.6025302 C39.4658233,36.7392372 39.4658233,33.7208186 37.6025302,31.8633302 L25.8257909,20.0865909 L37.5746016,8.34141722 C39.4751328,6.43530417 39.4751328,3.33569784 37.5746016,1.42958479 C35.6624819,-0.476528263 32.5683245,-0.476528263 30.661999,1.42958479 L18.9147375,13.1755375 L8.13231628,2.39311628 C6.27482791,0.535627907 3.2564093,0.535627907 1.39311628,2.39311628 C-0.464372093,4.2564093 -0.464372093,7.27482791 1.39311628,9.13231628 L12.175162,19.914362 L1.42974408,30.6585828 C-0.476581362,32.5646958 -0.476581362,35.6585085 1.42974408,37.5704152 C3.34186383,39.4765283 6.43022694,39.4765283 8.33655239,37.5704152 L19.0855476,26.8247476 Z"/>
</svg>
