<svg xmlns="http://www.w3.org/2000/svg" width="68" height="68" viewBox="0 0 68 68">
  <path d="M63.7006044,50.5848253 C70.9084147,37.6776278 69.0116225,20.9741958 58.0102278,9.96511567 C44.7326825,-3.32170522 23.2357043,-3.32170522 9.958159,9.96511567 C-3.31938633,23.2519366 -3.31938633,44.7639323 9.958159,58.0507532 C20.9595537,69.0598334 37.651325,70.9579507 50.5495119,63.6185639 L68,67.920963 L63.7006044,50.5848253 Z M58.9595555,59.1255898 L50.7877547,56.357649 C39.8501135,64.6614712 24.1351119,63.7807628 14.2032309,53.8413393 C3.26558971,42.8953918 3.26558971,25.155408 14.2032309,14.2094606 C25.140872,3.26351314 42.8673938,3.26351314 53.805035,14.2094606 C63.862636,24.2746996 64.6169561,39.8758201 56.3194352,50.8217676 L58.9595555,59.1255898 Z M18,30 C15.8285714,30 14,31.8285714 14,34 C14,36.1714286 15.8285714,38 18,38 C20.1714286,38 22,36.1714286 22,34 C22,31.8285714 20.1714286,30 18,30 Z M34,30 C31.8285714,30 30,31.8285714 30,34 C30,36.1714286 31.8285714,38 34,38 C36.1714286,38 38,36.1714286 38,34 C38,31.8285714 36.1714286,30 34,30 Z M48,30 C45.8285714,30 44,31.8285714 44,34 C44,36.1714286 45.8285714,38 48,38 C50.1714286,38 52,36.1714286 52,34 C52,31.8285714 50.1714286,30 48,30 Z" transform="matrix(-1 0 0 1 68 0)"/>
</svg>
