<svg xmlns="http://www.w3.org/2000/svg" width="60" height="45" viewBox="0 0 60 45">
  <path fill-rule="evenodd" d="M15.0650696,43.5967491 C15.185531,43.7950346 15.3321701,43.9821274 15.504987,44.1531626 C16.0896172,44.7332722 16.8604126,45.0153371 17.6260798,44.9993574 C18.3921489,45.0153371 19.1629442,44.7332722 19.7475744,44.1531626 C19.9211199,43.980959 20.0681976,43.7924778 20.1888077,43.5926841 L59.1487859,4.93106377 C60.283738,3.8019472 60.283738,1.97301359 59.1487859,0.846837428 C58.0138338,-0.282279143 56.1706478,-0.282279143 55.0327324,0.846837428 L17.6261475,37.9613949 L4.96949014,25.4051228 C3.83453801,24.2760063 1.99135204,24.2760063 0.853436589,25.4051228 C-0.284478863,26.5342394 -0.284478863,28.363173 0.853436589,29.4893492 L15.0650696,43.5967491 Z"/>
</svg>
