<svg xmlns="http://www.w3.org/2000/svg" width="50" height="43" viewBox="0 0 50 43">
  <path fill-rule="evenodd" d="M48.0440508,32.711861 C47.8467916,33.195309 47.2886378,33.4304405 46.7954899,33.2392588 C46.7461751,33.2194814 46.6968603,33.195309 46.6520287,33.1689391 L38.2886882,28.1916219 C37.4929267,27.7169638 36.5806031,27.4642524 35.6481052,27.4642524 L20.0399734,27.4642524 C19.4078474,27.4708448 18.7824461,27.2994405 18.2467082,26.9676194 L2.2328501,17.0107875 C1.78229222,16.7339036 1.65003891,16.1515685 1.93247818,15.7120703 L2.1835353,15.3253119 C2.46821615,14.8858137 3.05999366,14.7539642 3.51055154,15.0330456 L18.6770918,24.4778621 C19.4907859,24.98768 20.4367333,25.2579714 21.4006133,25.2579714 L36.3362707,25.2579714 C36.9482224,25.2579714 37.5489663,25.4249807 38.0690132,25.7436169 L41.6869257,27.9455029 C41.8393532,28.2179918 42.1240341,28.3915936 42.4400971,28.402581 L47.6428077,31.5691656 C48.0418092,31.8064946 48.2099278,32.2855477 48.0440508,32.711861 L48.0440508,32.711861 Z M22.4698477,36.8936864 L30.4319451,36.8936864 L30.4319451,29.2222452 L22.4698477,29.2222452 L22.4698477,36.8936864 Z M35.1168504,38.6494817 C35.6122399,38.6494817 36.013483,39.0428326 36.013483,39.5284781 L36.013483,40.1152082 C36.013483,40.5986563 35.6122399,40.9920072 35.1168504,40.9920072 L17.7939087,40.9920072 C17.2985192,40.9920072 16.8972761,40.5986563 16.8972761,40.1152082 L16.8972761,39.5284781 C16.8972761,39.0428326 17.2985192,38.6494817 17.7939087,38.6494817 L35.1168504,38.6494817 Z M25.821012,8.12633126 L25.2247513,8.71306137 C23.3395813,7.68024058 21.7794406,6.15298432 20.7258973,4.30269686 L21.3243995,3.71816425 C21.7704743,3.28086353 22.4945051,3.28086353 22.9428214,3.71816425 L25.8277367,6.54633521 C26.2670867,6.98583342 26.2648451,7.69122804 25.821012,8.12633126 L25.821012,8.12633126 Z M48.599963,30.0704767 L43.3793197,26.8972997 L43.3793197,4.14447751 C43.3748365,1.85908683 41.4874249,0.00440440168 39.1561802,9.41961324e-06 L30.1943375,9.41961324e-06 C29.1452773,-0.00218807142 28.1343241,0.380175369 27.3564953,1.07018755 L24.9669694,3.20175386 L24.2205228,2.47658182 C23.0728331,1.3536639 21.2168036,1.3536639 20.0691139,2.47658182 L18.515698,3.98186317 L18.8026204,4.56639579 C20.1251535,7.18800259 22.2950043,9.30638395 24.9736942,10.5941137 L25.5721964,10.8731951 L27.0875055,9.3679137 C28.2329537,8.24499578 28.2329537,6.42327571 27.0875055,5.2981603 L26.2222551,4.44992876 L28.557983,2.37769472 C29.0062993,1.97775135 29.591352,1.75580476 30.1943375,1.75580476 L39.1561802,1.75580476 C40.5011291,1.75580476 41.5927793,2.82598289 41.5927793,4.14447751 L41.5927793,25.8139366 L39.0306516,24.2559155 C38.2259239,23.765875 37.3001507,23.506571 36.3542034,23.506571 L27.3542537,23.506571 L27.3542537,20.203742 L32.0279511,20.203742 C32.5233406,20.203742 32.9245837,19.8103911 32.9245837,19.3247456 C32.9245837,18.8391001 32.5233406,18.4457492 32.0279511,18.4457492 L20.8760832,18.4457492 C20.3806937,18.4457492 19.9794507,18.8391001 19.9794507,19.3247456 C19.9794507,19.8103911 20.3806937,20.203742 20.8760832,20.203742 L25.5520222,20.203742 L25.5520222,23.4999785 L21.4073381,23.4999785 C20.7729705,23.506571 20.1498108,23.3307717 19.6163145,22.9967531 L4.47667316,13.5321592 C3.19673013,12.7278775 1.49312821,13.092661 0.672709387,14.3474284 L0.421652262,14.7341868 C-0.383075489,15.9933492 -0.0020066374,17.6524549 1.27569481,18.4523416 L17.2917945,28.406976 C18.1077301,28.9321764 19.0626438,29.2156527 20.0399734,29.2222452 L20.7079646,29.2222452 L20.7079646,36.8936864 L17.7939087,36.8936864 C16.3077402,36.8936864 15.1040109,38.0737391 15.1040109,39.5284781 L15.1040109,40.1152082 C15.1040109,41.5699473 16.3077402,42.75 17.7939087,42.75 L35.1168504,42.75 C36.6007773,42.75 37.8045066,41.5699473 37.8045066,40.1152082 L37.8045066,39.5284781 C37.8045066,38.0737391 36.6007773,36.8936864 35.1168504,36.8936864 L32.2252103,36.8936864 L32.2252103,29.2222452 L35.6682794,29.2222452 C36.2690233,29.2200477 36.8608008,29.382662 37.3741229,29.6903108 L45.7374634,34.667628 C47.0555133,35.4169724 48.7411826,34.9774742 49.5033203,33.687547 C50.238559,32.443767 49.8507654,30.854981 48.6246204,30.0704767 L48.599963,30.0704767 Z"/>
</svg>
