<svg xmlns="http://www.w3.org/2000/svg" width="64" height="64" viewBox="0 0 64 64">
  <path fill-rule="evenodd" d="M59.7312012,10.3716007 C60.1093002,9.93843159 60.0850631,9.28381091 59.6803032,8.87984425 L55.0994887,4.28289834 C54.6704918,3.90570055 54.030632,3.90570055 53.6040588,4.28289834 L50,7.89913001 L56.0762444,14 L59.7312012,10.3716007 Z M46.7883372,11 L10,47.7459535 L16.2935912,54 L53,17.2565412 L46.7883372,11 Z M7.48332175,52 L5,59 L12,56.4622871 L7.48332175,52 Z M62.5375159,6.23426487 C64.4874947,8.26437481 64.4874947,11.4785069 62.5375159,13.5061137 L57.4366109,18.5400854 L17.6006153,58.4088413 C17.2760349,58.7192404 16.8765514,58.9345171 16.4396163,59.0321427 L2.64994513,63.9134181 C2.45020338,63.9835082 2.24047454,64.0110436 2.02824893,63.9960243 C1.49144297,64.01605 0.967120871,63.8233022 0.567637368,63.4553292 C0.048308813,62.8946083 -0.131458764,62.0985849 0.098244251,61.3676452 L5.17418152,47.184411 L5.25657499,47.0317147 C5.33896846,46.8089283 5.46380706,46.6061676 5.628594,46.438452 L50.5704882,1.50568573 C52.5704024,-0.501895244 55.8187027,-0.501895244 57.8211137,1.50568573 L62.5375159,6.23426487 Z"/>
</svg>
