<svg xmlns="http://www.w3.org/2000/svg" width="27" height="45" viewBox="0 0 27 45">
  <path d="M2.622,2.19925 C2.4407766,2.19925 2.261,2.3793517 2.261,2.56025 L2.261,9.174625 C2.261,9.35600693 2.43888642,9.53325 2.622,9.53325 L24.374625,9.53325 C24.5555249,9.53325 24.73325,9.35584684 24.73325,9.174625 L24.73325,2.56025 C24.73325,2.37951514 24.5536356,2.19925 24.374625,2.19925 L7.7425,2.19925 L7.7425,5.840125 C7.7425,6.48998765 7.26730896,6.970625 6.614375,6.970625 C5.96162977,6.970625 5.483875,6.49014798 5.483875,5.840125 L5.483875,2.19925 L5.360375,2.19925 L5.360375,7.089375 C5.360375,7.74126156 4.88312125,8.219875 4.229875,8.219875 C3.57849784,8.219875 3.099375,7.74075216 3.099375,7.089375 L3.099375,2.19925 L2.622,2.19925 Z M25.802,9.174625 C25.802,9.94653541 25.1453458,10.602 24.374625,10.602 L2.622,10.602 C1.8494972,10.602 1.19225,9.94712983 1.19225,9.174625 L1.19225,2.56025 C1.19225,1.78952918 1.8500896,1.1305 2.622,1.1305 L4.168125,1.1305 L4.168125,7.089375 C4.168125,7.15049784 4.16875216,7.151125 4.229875,7.151125 C4.29218521,7.151125 4.291625,7.15168681 4.291625,7.089375 L4.291625,1.1305 L6.552625,1.1305 L6.552625,5.840125 C6.552625,5.90124874 6.55324771,5.901875 6.614375,5.901875 C6.67431108,5.901875 6.67375,5.90244251 6.67375,5.840125 L6.67375,1.1305 L24.374625,1.1305 C25.144757,1.1305 25.802,1.79012435 25.802,2.56025 L25.802,9.174625 Z M13.94125,29.37875 C14.5963674,29.37875 15.07175,29.8568491 15.07175,30.50925 C15.07175,31.163513 14.5968698,31.63975 13.94125,31.63975 L4.76425,31.63975 L4.76425,36.710375 L15.1335,36.710375 C15.6760017,36.710375 16.152375,36.2354966 16.152375,35.693875 L16.152375,19.4845 C16.152375,18.9464409 15.6748105,18.470375 15.1335,18.470375 L4.76425,18.470375 L4.76425,23.7785 L13.94125,23.7785 C14.5963674,23.7785 15.07175,24.2565991 15.07175,24.909 C15.07175,25.5615647 14.5961897,26.037125 13.94125,26.037125 L4.76425,26.037125 L4.76425,26.581 L13.94125,26.581 C14.5973772,26.581 15.07175,27.0553728 15.07175,27.7115 C15.07175,28.3620409 14.5958698,28.842 13.94125,28.842 L4.76425,28.842 L4.76425,29.37875 L13.94125,29.37875 Z M13.94125,30.4475 L3.6955,30.4475 L3.6955,27.77325 L13.94125,27.77325 C14.003564,27.77325 14.003,27.7738188 14.003,27.7115 C14.003,27.6456272 14.0071228,27.64975 13.94125,27.64975 L3.6955,27.64975 L3.6955,24.968375 L13.94125,24.968375 C14.0059353,24.968375 14.003,24.9713103 14.003,24.909 C14.003,24.8454945 14.0047455,24.84725 13.94125,24.84725 L3.6955,24.84725 L3.6955,17.401625 L15.1335,17.401625 C16.2643141,17.401625 17.221125,18.3554333 17.221125,19.4845 L17.221125,35.693875 C17.221125,36.8265042 16.2655054,37.779125 15.1335,37.779125 L3.6955,37.779125 L3.6955,30.571 L13.94125,30.571 C14.0059318,30.571 14.003,30.5739402 14.003,30.50925 C14.003,30.4457445 14.0047455,30.4475 13.94125,30.4475 Z M4.704875,40.75975 C4.704875,41.4437523 5.26144885,42.01375 5.958875,42.01375 L21.035375,42.01375 C21.7193773,42.01375 22.289375,41.4571762 22.289375,40.75975 L22.289375,11.73725 L4.704875,11.73725 L4.704875,16.21175 L15.1335,16.21175 C16.9624087,16.21175 18.411,17.6804607 18.411,19.4845 L18.411,35.636875 C18.411,37.4620715 16.9389414,38.909625 15.1335,38.909625 L4.704875,38.909625 L4.704875,40.75975 Z M23.358125,40.75975 C23.358125,42.0532063 22.3040061,43.0825 21.035375,43.0825 L5.958875,43.0825 C4.66541868,43.0825 3.636125,42.0283811 3.636125,40.75975 L3.636125,37.840875 L15.1335,37.840875 C16.3526656,37.840875 17.34225,36.8677641 17.34225,35.636875 L17.34225,19.4845 C17.34225,18.2674404 16.3688294,17.2805 15.1335,17.2805 L3.636125,17.2805 L3.636125,10.6685 L23.358125,10.6685 L23.358125,40.75975 Z M0,9.174625 L0,2.619625 C0,1.14978042 1.17361956,0 2.622,0 L24.374625,0 C25.8078471,0 26.99425,1.13913216 26.99425,2.56025 L26.99425,9.117625 C26.99425,10.5262758 25.9135176,11.6426326 24.550375,11.7315384 L24.550375,40.75975 C24.550375,42.6860627 22.981881,44.277125 21.035375,44.277125 L5.958875,44.277125 C4.03323287,44.277125 2.443875,42.7068637 2.443875,40.75975 L2.443875,11.7884716 C1.05970335,11.6982763 0,10.5634118 0,9.174625 Z M24.374625,1.06875 L2.622,1.06875 C1.75902059,1.06875 1.06875,1.74499947 1.06875,2.619625 L1.06875,9.174625 C1.06875,10.0362757 1.74610973,10.7255 2.622,10.7255 L3.512625,10.7255 L3.512625,40.75975 C3.512625,42.1136982 4.62061463,43.208375 5.958875,43.208375 L21.035375,43.208375 C22.388182,43.208375 23.481625,42.099199 23.481625,40.75975 L23.481625,10.6685 L24.374625,10.6685 C25.2340419,10.6685 25.9255,9.99108716 25.9255,9.117625 L25.9255,2.56025 C25.9255,1.73932702 25.2270959,1.06875 24.374625,1.06875 Z"/>
</svg>
