<svg xmlns="http://www.w3.org/2000/svg" width="41" height="77" viewBox="0 0 41 77">
  <path fill-rule="evenodd" d="M24.659949,8.2540128 C24.659949,5.93554271 22.8024937,4.05138063 20.5168863,4.05138063 C18.2291488,4.05138063 16.3738235,5.93554271 16.3738235,8.2540128 C16.3738235,10.5746436 18.2291488,12.456645 20.5168863,12.456645 C22.8024937,12.456645 24.659949,10.5746436 24.659949,8.2540128 L24.659949,8.2540128 Z M12.3798684,8.2540128 C12.3798684,3.6991806 16.0244856,0 20.5168863,0 C25.009287,0 28.6539041,3.6991806 28.6539041,8.2540128 C28.6539041,12.8110057 25.009287,16.5080256 20.5168863,16.5080256 C16.0244856,16.5080256 12.3798684,12.8110057 12.3798684,8.2540128 L12.3798684,8.2540128 Z M18.5039329,72.9486194 L18.5039329,53.1800427 C18.5039329,52.062942 19.3985789,51.1554327 20.4998454,51.1554327 C21.601112,51.1554327 22.497888,52.062942 22.497888,53.1800427 L22.497888,72.9486194 L26.2191891,72.9486194 L26.2191891,47.317965 L14.8018028,47.317965 L14.7805017,72.9486194 L18.5039329,72.9486194 Z M10.7865466,74.9732293 L10.7865466,27.4046189 L9.89616088,28.3834325 C7.67445679,30.9352621 5.62742167,33.9732574 3.78061683,37.6940453 C3.28643145,38.6923055 2.08078954,39.0942025 1.09880911,38.5907509 C0.114698574,38.0872994 -0.281501772,36.8686441 0.212683606,35.8703839 C3.4121079,29.4335503 7.21861338,24.7836458 11.5193042,21.1557694 C12.8165408,20.0602761 14.7954125,21.0023572 14.7932824,22.7158211 L14.7698512,43.2622629 L26.2085386,43.2665844 L26.2085386,22.7136603 C26.2085386,21.0261253 28.1362876,20.077562 29.4420446,21.1233584 C34.2901736,25.0062016 38.1073296,29.9326804 40.8189588,35.9395274 C41.2769324,36.9572343 40.8359997,38.1586037 39.8348483,38.6253227 C38.8315668,39.089881 37.6450959,38.6426086 37.1849922,37.6249018 C35.6534436,34.2282243 33.7406054,31.231283 31.4592582,28.6124705 L30.2131442,27.2512066 L30.2131442,74.9732293 C30.2131442,76.0924907 29.3184983,77 28.2172317,77 L12.7845892,77 C11.6811925,77 10.7865466,76.0924907 10.7865466,74.9732293 L10.7865466,74.9732293 Z"/>
</svg>
