<svg xmlns="http://www.w3.org/2000/svg" width="31" height="55" viewBox="0 0 31 55">
  <path fill-rule="evenodd" d="M9.59072537,37.3212122 L9.59072537,35.0223117 C9.59072537,32.3881418 10.0696582,30.1970242 11.0275382,28.4488932 C11.9854181,26.7007623 13.661683,24.8927909 16.0563829,23.0249249 C18.9060759,20.773907 20.7439805,19.0258022 21.570152,17.7805583 C22.3963235,16.5353143 22.809403,15.0506226 22.809403,13.3264386 C22.809403,11.3148907 22.1388971,9.77033236 20.7978651,8.69271738 C19.4568332,7.6151024 17.5291286,7.07630299 15.0146936,7.07630299 C12.7397287,7.07630299 10.6324243,7.39958263 8.69271738,8.04615162 C6.75301041,8.69272061 4.86122582,9.47098642 3.01730686,10.3809724 L0,4.05899613 C4.86124091,1.35298518 10.0696352,0 15.6253391,0 C20.318951,0 24.0426536,1.14943874 26.7965585,3.44835069 C29.5504635,5.74726265 30.9273953,8.9201925 30.9273953,12.9672354 C30.9273953,14.7632604 30.6639822,16.3616986 30.1371483,17.7625981 C29.6103143,19.1634976 28.8140885,20.4985228 27.748447,21.7677138 C26.6828055,23.0369047 24.8449009,24.6892229 22.2346779,26.7247179 C20.007607,28.4728488 18.5169286,29.9216206 17.7625981,31.0710766 C17.0082676,32.2205325 16.631108,33.7650909 16.631108,35.7047978 L16.631108,37.3212122 L9.59072537,37.3212122 Z M8.11799226,48.7797942 C8.11799226,45.1637973 9.87807033,43.3558259 13.3982793,43.3558259 C15.1224632,43.3558259 16.4395284,43.8287721 17.3495144,44.7746785 C18.2595004,45.720585 18.7144866,47.0556102 18.7144866,48.7797942 C18.7144866,50.4800312 18.2535138,51.8270297 17.3315543,52.8208302 C16.4095948,53.8146307 15.0985162,54.3115234 13.3982793,54.3115234 C11.6980423,54.3115234 10.3929504,53.826604 9.48296441,52.8567505 C8.57297843,51.886897 8.11799226,50.5279252 8.11799226,48.7797942 Z"/>
</svg>
