<svg xmlns="http://www.w3.org/2000/svg" width="65" height="65" viewBox="0 0 65 65">
  <path d="M23.5,47 C10.5213084,47 0,36.4786916 0,23.5 C0,10.5213084 10.5213084,0 23.5,0 C36.4786916,0 47,10.5213084 47,23.5 C47,36.4786916 36.4786916,47 23.5,47 Z M23.5,45 C35.3741221,45 45,35.3741221 45,23.5 C45,11.6258779 35.3741221,2 23.5,2 C11.6258779,2 2,11.6258779 2,23.5 C2,35.3741221 11.6258779,45 23.5,45 Z M40.3345599,41.7487734 C39.9440356,41.3582492 39.9440356,40.7250842 40.3345599,40.3345599 C40.7250842,39.9440356 41.3582492,39.9440356 41.7487734,40.3345599 L64.6654401,63.2512266 C65.0559644,63.6417508 65.0559644,64.2749158 64.6654401,64.6654401 C64.2749158,65.0559644 63.6417508,65.0559644 63.2512266,64.6654401 L40.3345599,41.7487734 Z"/>
</svg>
