<svg xmlns="http://www.w3.org/2000/svg" width="34" height="76" viewBox="0 0 34 76">
  <path fill-rule="evenodd" d="M11.1945243,73.6740278 C11.1945243,74.8183333 12.1328196,75.7466111 13.2894739,75.7466111 C14.4439663,75.7466111 15.3822615,74.8183333 15.3822615,73.6740278 L15.3822615,61.2214167 L18.3333515,61.2214167 L18.3333515,73.6740278 C18.3333515,74.8183333 19.2694848,75.7466111 20.4261391,75.7466111 C21.5806315,75.7466111 22.5210887,74.8183333 22.5210887,73.6740278 L22.5210887,61.2214167 L31.6186613,61.2214167 C32.9590831,61.2214167 33.9579136,59.9894167 33.6638856,58.6953889 C31.4781332,49.1153056 27.2471566,40.3030833 21.2239063,32.1817222 L19.5635128,30.0193056 L20.9406881,28.4429444 C21.5482019,27.7691944 22.1686875,27.1018611 22.8021449,26.4388056 L23.3664192,25.8655833 L24.4301088,26.9157778 C26.7390935,29.3391389 28.4665081,32.0362778 29.6793736,34.9793889 C30.1160917,36.0402778 31.3397671,36.5471944 32.4099426,36.1172778 C33.48228,35.6852222 33.9946671,34.4746111 33.560111,33.4158611 C31.6791965,28.8536111 28.7367544,24.8175278 24.6138763,21.4038611 C23.7836796,20.7172778 22.5556802,20.77075 21.7903426,21.5279167 C20.4066814,22.8946667 19.0813934,24.2806667 17.8123166,25.6901944 L16.8567255,26.7831667 L15.9011345,25.6901944 C14.6320577,24.2806667 13.3067697,22.8946667 11.9231085,21.5279167 C11.1577708,20.77075 9.93193347,20.7172778 9.09957476,21.4038611 C4.97669668,24.8175278 2.03641656,28.8536111 0.157664042,33.4158611 C-0.281216005,34.4746111 0.233333016,35.6852222 1.30567047,36.1172778 C2.37368398,36.5471944 3.59735939,36.0402778 4.03407746,34.9793889 C5.24694301,32.0362778 6.97219561,29.3391389 9.28118029,26.9157778 L10.3470318,25.8655833 L10.9113062,26.4388056 C11.5447636,27.1018611 12.1652492,27.7691944 12.770601,28.4429444 L14.1499383,30.0193056 L12.4917067,32.1817222 C6.46629447,40.3030833 2.23531786,49.1153056 0.0517274788,58.6953889 C-0.242300533,59.9894167 0.754367948,61.2214167 2.09695174,61.2214167 L11.1945243,61.2214167 L11.1945243,73.6740278 Z M28.9399796,57.0783889 L4.77347143,57.0783889 L5.44368234,54.7833611 C7.68348396,47.6458889 11.1858765,40.9426111 15.8687049,34.6286111 L16.8567255,33.341 L17.8447461,34.6286111 C22.5275746,40.9426111 26.0299671,47.6458889 28.2697687,54.7833611 L28.9399796,57.0783889 Z M8.32342728,8.44219444 C8.32342728,13.1028333 12.1457914,16.8843889 16.8588875,16.8843889 C21.5676596,16.8843889 25.3921858,13.1028333 25.3921858,8.44219444 C25.3921858,3.78155556 21.5676596,0 16.8588875,0 C12.1457914,0 8.32342728,3.78155556 8.32342728,8.44219444 L8.32342728,8.44219444 Z M21.2022866,8.44219444 C21.2022866,10.8142222 19.256513,12.7413611 16.8588875,12.7413611 C14.4591001,12.7413611 12.5133265,10.8142222 12.5133265,8.44219444 C12.5133265,6.07016667 14.4591001,4.14302778 16.8588875,4.14302778 C19.256513,4.14302778 21.2022866,6.07016667 21.2022866,8.44219444 L21.2022866,8.44219444 Z"/>
</svg>
