<svg xmlns="http://www.w3.org/2000/svg" width="48" height="59" viewBox="0 0 48 59">
  <path d="M5.467797,51.5440726 C2.55840712,51.5440726 0.220292483,49.0043462 0.220292483,45.9110979 L0.220292483,5.63297472 C0.220292483,2.53972245 2.55839945,0 5.467797,0 L42.5240651,0 C45.4334626,0 47.7715696,2.53972245 47.7715696,5.63297472 L47.7715696,45.9110979 C47.7715696,49.0043462 45.4334549,51.5440726 42.5240651,51.5440726 L29.2075446,51.5440726 L25.0759482,58.2371397 C24.5752828,59.040128 23.3639403,59.040128 22.8614884,58.2342601 L18.7316781,51.5440726 L5.467797,51.5440726 Z M28.3642017,50.0324007 L42.5240651,50.0324007 C44.5693813,50.0324007 46.2598977,48.1961138 46.2598977,45.9110979 L46.2598977,5.63297472 C46.2598977,3.3479543 44.5693883,1.51167187 42.5240651,1.51167187 L5.467797,1.51167187 C3.42247377,1.51167187 1.73196435,3.3479543 1.73196435,5.63297472 L1.73196435,45.9110979 C1.73196435,48.1961138 3.42248081,50.0324007 5.467797,50.0324007 L19.5750214,50.0324007 L19.796515,50.3912148 L23.9696073,57.1515318 L28.3642017,50.0324007 Z M27.3557693,49.4344508 C27.5999732,49.0445792 28.0340885,48.798357 28.4700529,48.8131008 L42.5240651,48.8131008 C43.9669291,48.8131008 45.1369806,47.5415242 45.1369806,45.9110979 L45.1369806,5.67650373 C45.1369806,4.04606673 43.9669072,2.77443987 42.5240651,2.77443987 L5.467797,2.77443987 C4.02495488,2.77443987 2.8548815,4.04606673 2.8548815,5.67650373 L2.8548815,45.9110979 C2.8548815,47.5415242 4.02493294,48.8131008 5.467797,48.8131008 L19.4555031,48.8132244 C19.9107976,48.8049903 20.3408324,49.0471056 20.5872763,49.4406191 L23.9622439,54.9455435 L27.3557693,49.4344508 Z M5.467797,50.3247727 C3.16067638,50.3247727 1.34320963,48.3496046 1.34320963,45.9110979 L1.34320963,5.67650373 C1.34320963,3.23799263 3.1606907,1.262768 5.467797,1.262768 L42.5240651,1.262768 C44.8311714,1.262768 46.6486524,3.23799263 46.6486524,5.67650373 L46.6486524,45.9110979 C46.6486524,48.3496046 44.8311857,50.3247727 42.5240651,50.3247727 L28.5830398,50.3243684 L23.9594357,57.8331599 L23.3164633,56.7844047 L19.3562224,50.3247727 L5.467797,50.3247727 Z M14.4053308,40.0855523 L14.7831184,35.9874821 C14.9027512,35.4116044 15.0759038,34.8466217 15.3072987,34.3018726 C16.7428916,30.9446613 20.0516815,28.7750031 23.7382589,28.7750031 C27.4248364,28.7750031 30.7352003,30.9446613 32.1707932,34.3018726 C32.4037622,34.8435089 32.5753408,35.4116044 32.6965476,35.9874821 L33.0696129,40.0855523 L14.4053308,40.0855523 Z M36.2556218,42.3921759 C36.2808076,42.3470396 36.3075676,42.3081289 36.3280311,42.2614361 C36.3469204,42.2178562 36.3610875,42.169607 36.3784027,42.1244706 C36.3941439,42.074665 36.4114592,42.0279722 36.4256262,41.9750537 C36.4350709,41.9299174 36.4397932,41.8832246 36.4460897,41.8380882 C36.4539603,41.7820569 36.4618308,41.727582 36.4634049,41.6684378 C36.4634049,41.6575428 36.4681273,41.6466478 36.4681273,41.6341964 C36.4681273,41.5921729 36.4571085,41.5517058 36.4555344,41.5127951 C36.450812,41.4723281 36.4555344,41.4334174 36.4460897,41.3929503 L35.9376505,36.4419586 C35.8982976,36.1104398 35.8447777,35.778921 35.780239,35.4505151 L35.7644979,35.3695809 C35.7597755,35.3337831 35.7456085,35.3010982 35.7377379,35.2668568 C35.5771782,34.5244415 35.355228,33.7960341 35.0529979,33.0956423 C33.1247069,28.5913448 28.6841284,25.6792714 23.7382589,25.6792714 C18.7923894,25.6792714 14.3502368,28.5913448 12.4219458,33.0956423 C12.1212899,33.7960341 11.8977655,34.5244415 11.7356317,35.2668568 C11.7277611,35.3010982 11.7151682,35.3337831 11.7072976,35.3695809 L11.6962788,35.4505151 C11.630166,35.778921 11.5766461,36.1088834 11.5372932,36.4419586 L11.0272799,41.3929503 C11.0225576,41.4334174 11.0241317,41.4723281 11.0209834,41.5127951 C11.0162611,41.5517058 11.0083905,41.5921729 11.0083905,41.6341964 C11.0083905,41.6466478 11.0115388,41.6575428 11.0115388,41.6684378 C11.0131129,41.727582 11.0225576,41.7820569 11.0304281,41.8380882 C11.0351505,41.8832246 11.0414469,41.9314738 11.0493175,41.9750537 C11.0603363,42.0279722 11.0792257,42.074665 11.096541,42.1244706 C11.1122821,42.1711634 11.1233009,42.2209691 11.1469127,42.2614361 C11.1673761,42.3081289 11.192562,42.3470396 11.2177478,42.3921759 C11.2413596,42.4357559 11.2649713,42.4808922 11.2933054,42.5229157 C11.3247877,42.5618264 11.3578441,42.5991806 11.3909005,42.6365349 C11.4239569,42.6723327 11.452291,42.7112433 11.4884956,42.7470411 C11.5262744,42.7797261 11.5687755,42.8108546 11.6065542,42.8435395 C11.6459071,42.8715552 11.6821118,42.9026837 11.7230388,42.9306994 C11.7655399,42.9587151 11.8111892,42.9805051 11.8568385,43.0007386 C11.9024879,43.024085 11.9481372,43.0505442 11.9953607,43.0692213 C12.0378618,43.086342 12.0866593,43.097237 12.1323087,43.1096884 C12.1889768,43.1283655 12.2409226,43.1439298 12.2991649,43.1532684 C12.3117578,43.1579376 12.3212025,43.1610505 12.3322213,43.1626069 C12.4140753,43.1766148 12.4975034,43.1828405 12.5777832,43.1828405 L12.5809315,43.1828405 L18.0021837,43.1828405 L29.4774824,43.1828405 L34.8971605,43.1828405 L34.8987346,43.1828405 C34.9805886,43.1828405 35.0640167,43.1766148 35.1442965,43.1641633 C35.1600377,43.1626069 35.1679083,43.1579376 35.1789271,43.1548248 C35.2371693,43.1439298 35.2906892,43.129922 35.3457833,43.1112449 C35.3914326,43.097237 35.4386561,43.0878985 35.4811572,43.0692213 C35.5315288,43.0505442 35.5771782,43.0256414 35.6228275,43.0007386 C35.6653286,42.9805051 35.7125521,42.9587151 35.7534791,42.9322558 C35.7944061,42.9057966 35.8306107,42.8731116 35.8699636,42.845096 C35.9108906,42.812411 35.9518176,42.7812825 35.9895963,42.7470411 C36.0242269,42.7127997 36.054135,42.6738891 36.0871915,42.6380913 C36.1202479,42.5991806 36.1564525,42.5633828 36.1847866,42.5229157 C36.2099724,42.4808922 36.2304359,42.4357559 36.2556218,42.3921759 Z M23.7382589,9.68920059 C26.4116436,9.68920059 28.5887433,11.8651664 28.5887433,14.5406366 C28.5887433,17.2161068 26.4132043,19.3920726 23.7382589,19.3920726 C21.0648742,19.3920726 18.8862139,17.2161068 18.8862139,14.5406366 C18.8862139,11.8651664 21.0633135,9.68920059 23.7382589,9.68920059 Z M23.7382589,22.4968043 C28.1236711,22.4968043 31.6944267,18.9269092 31.6944267,14.5406366 C31.6944267,10.1512421 28.1236711,6.58446886 23.7382589,6.58446886 C19.3497254,6.58446886 15.7820912,10.154364 15.7820912,14.5406366 C15.7820912,18.9269092 19.3512861,22.4968043 23.7382589,22.4968043 Z"/>
</svg>
