<svg xmlns="http://www.w3.org/2000/svg" width="44" height="44"><path fill-rule="evenodd" d="M40.742 7.953l-10.267 9.333c-.208.155-.26.413-.26.67l2.839 21.295c.05.31-.05.568-.258.773l-1.807 1.806c-.05.05-.103.05-.103.05-.053 0-.103 0-.103-.102L22.63 25.536a.799.799 0 0 0-.569-.413h-.153a.663.663 0 0 0-.515.205l-8.877 7.84a.668.668 0 0 0-.258.67l.67 5.36v.053c.05.31-.052.618-.257.876l-.31.31c-.053.052-.103.052-.103.052-.053 0-.053 0-.103-.052l-3.352-5.516a.636.636 0 0 0-.258-.258L3.02 31.311c-.052-.052-.052-.052-.052-.104 0-.05 0-.103.052-.103l.31-.308c.206-.207.567-.31.877-.258h.054l5.363.669a.672.672 0 0 0 .673-.258l7.894-8.92c.155-.153.208-.413.155-.67-.052-.258-.203-.413-.413-.566L1.628 12.748l-.105-.102c0-.053 0-.105.053-.105l1.805-1.804c.207-.205.516-.31.773-.258l21.365 2.785a.678.678 0 0 0 .673-.258L35.53 2.745c.723-.826 1.807-1.238 2.891-1.186 1.908.103 3.407 1.599 3.457 3.455.103 1.133-.362 2.166-1.136 2.939M38.524.01c-1.55-.103-3.045.517-4.128 1.703l-9.08 9.951L4.413 8.881a2.513 2.513 0 0 0-2.117.723L.492 11.407c-.36.36-.568.929-.466 1.444.105.515.413.98.93 1.238l15.43 7.632-6.965 7.887-4.956-.618a2.479 2.479 0 0 0-2.218.67l-.31.31c-.361.361-.567.876-.462 1.392.048.515.359.98.772 1.238l5.367 3.25 3.25 5.36c.257.465.723.723 1.239.773.515.052 1.031-.103 1.392-.463l.31-.31a2.481 2.481 0 0 0 .673-2.216l-.62-4.95 7.843-6.962L29.34 42.5c.258.462.719.825 1.235.928h.257c.466 0 .879-.155 1.187-.518l1.807-1.804c.569-.567.826-1.34.724-2.113L31.762 18.11l9.961-9.075c1.134-1.03 1.755-2.579 1.703-4.125-.103-2.631-2.217-4.745-4.902-4.9"/></svg>