<svg xmlns="http://www.w3.org/2000/svg" width="45" height="32"><path d="M30.435.012a1.403 1.403 0 0 0-.364.096l-14.352 6.02H3.888C1.759 6.128 0 7.973 0 10.206v8.155c0 2.232 1.76 4.077 3.888 4.077h.972v6.117c0 .73.211 1.512.744 2.118.533.606 1.36.94 2.172.94H9.72c.81 0 1.639-.334 2.172-.94.533-.606.744-1.388.744-2.118v-6.117h3.128l14.307 6.005c.449.19.96.135 1.361-.15a1.55 1.55 0 0 0 .643-1.267V1.54a1.563 1.563 0 0 0-.49-1.155 1.414 1.414 0 0 0-1.15-.374zM41.21 3.793c-.205.023-.4.094-.573.208L33.66 8.424c-.398.251-.633.7-.616 1.174.016.475.281.905.695 1.128.414.222.914.204 1.31-.049l6.978-4.423c.532-.32.771-.972.574-1.566a1.308 1.308 0 0 0-1.391-.895zm-12.05.01v20.945l-11.663-4.89V8.693l11.663-4.89zM3.888 9.186H9.72V19.38H3.888c-.564 0-.972-.428-.972-1.02v-8.154c0-.591.408-1.02.972-1.02zm8.748 0h1.944V19.38h-1.944V9.186zm23.618 4.352a1.31 1.31 0 0 0-1.099.724c-.212.423-.186.929.068 1.327.255.398.7.628 1.167.603h6.978c.471.007.91-.245 1.148-.658a1.344 1.344 0 0 0 0-1.337 1.305 1.305 0 0 0-1.148-.659H36.39a1.29 1.29 0 0 0-.136 0zM34.3 18.833a1.312 1.312 0 0 0-1.226.987c-.147.568.09 1.168.586 1.473l6.977 4.423c.397.253.897.272 1.311.05a1.33 1.33 0 0 0 .696-1.128 1.334 1.334 0 0 0-.617-1.175L35.05 19.04a1.295 1.295 0 0 0-.75-.207zM7.776 22.438H9.72v6.117H7.776v-6.117z"/></svg>