<svg xmlns="http://www.w3.org/2000/svg" width="60" height="45"><path fill-rule="evenodd" stroke="#000" stroke-width=".5" d="M10.119 31.559l5.342-5.232 2.066 4.003-7.408 1.229zm2.237-12.561l33.5-4.219-30.393 8.923h-.002l-.01.004c-.03.008-.059.024-.089.036a.56.56 0 0 0-.04.016c-.017.008-.033.012-.049.018 0 .002-.002.002-.004.004-.04.02-.079.049-.117.075-.016.012-.035.022-.05.035-.015.01-.025.024-.037.034-.018.018-.045.024-.063.042l-5.749 5.63 3.103-10.598zM12.142 17L3.99 3.19l47.561 8.847L12.141 17zm13.475 24.626L17.185 25.29l37.166-10.91-28.734 27.247zm33.438-29.674a1.004 1.004 0 0 0-.21-.378c-.015-.014-.031-.028-.045-.044l-.014-.014-.004-.002c-.023-.02-.043-.043-.065-.061a.624.624 0 0 0-.075-.053l-.026-.016-.03-.02c-.007-.002-.01-.006-.017-.01a1.507 1.507 0 0 0-.08-.04l-.017-.007c-.01-.006-.022-.01-.032-.014a1.55 1.55 0 0 0-.158-.046c-.006 0-.012-.004-.018-.004L2.183.81C2.15.805 2.118.805 2.085.803a.997.997 0 0 0-1.073.81c-.008.043-.008.086-.01.128v.002a.929.929 0 0 0 .049.368c.002.008.004.018.008.026.018.053.042.103.068.152l.012.022 9.366 15.866-4.2 14.34a.91.91 0 0 0-.086.158c-.004.01-.006.02-.01.028a.965.965 0 0 0-.073.35l.002.026c0 .052.002.103.01.155.007.039.029.071.039.108a.836.836 0 0 0 .18.347c.022.027.03.059.054.085.013.01.027.012.039.024.066.063.141.108.222.152.032.016.06.04.093.053.115.044.237.072.364.072.055 0 .111-.006.164-.014l11.19-1.857 5.895 11.418c.008.023.022.043.032.065l.026.049c.012.024.033.042.047.066.036.059.058.122.109.174.198.208.463.313.73.313.036 0 .068-.016.105-.02a.882.882 0 0 0 .188-.036.673.673 0 0 0 .12-.045c.02-.008.037-.01.056-.018.074-.04.141-.089.202-.143.006-.006.014-.008.018-.012l32.66-30.97c.331-.243.495-.673.374-1.092z"/></svg>