<svg xmlns="http://www.w3.org/2000/svg" width="68" height="68"><path d="M4.3 50.585c-7.208-12.907-5.312-29.61 5.69-40.62 13.277-13.287 34.774-13.287 48.052 0 13.277 13.287 13.277 34.799 0 48.086C47.04 69.06 30.349 70.958 17.45 63.619L0 67.92l4.3-17.336zm4.74 8.54l8.172-2.767C28.15 64.66 43.865 63.78 53.797 53.84c10.937-10.946 10.937-28.686 0-39.632-10.938-10.945-28.664-10.945-39.602 0C4.137 24.275 3.383 39.876 11.681 50.822l-2.64 8.304zM50 30c2.171 0 4 1.829 4 4 0 2.171-1.829 4-4 4-2.171 0-4-1.829-4-4 0-2.171 1.829-4 4-4zm-16 0c2.171 0 4 1.829 4 4 0 2.171-1.829 4-4 4-2.171 0-4-1.829-4-4 0-2.171 1.829-4 4-4zm-14 0c2.171 0 4 1.829 4 4 0 2.171-1.829 4-4 4-2.171 0-4-1.829-4-4 0-2.171 1.829-4 4-4z"/></svg>