<svg xmlns="http://www.w3.org/2000/svg" width="50" height="43"><path fill-rule="evenodd" d="M48.044 32.712a.97.97 0 0 1-1.392.457l-8.363-4.977a5.155 5.155 0 0 0-2.64-.728H20.04a3.346 3.346 0 0 1-1.793-.496L2.233 17.01a.93.93 0 0 1-.3-1.299l.25-.387a.973.973 0 0 1 1.328-.292l15.166 9.445c.814.51 1.76.78 2.724.78h14.935c.612 0 1.213.167 1.733.486l3.618 2.202a.897.897 0 0 0 .753.457l5.203 3.166a.933.933 0 0 1 .401 1.143zM22.47 36.894h7.962v-7.672H22.47v7.672zm12.647 1.755c.495 0 .896.394.896.88v.586a.887.887 0 0 1-.896.877H17.794a.887.887 0 0 1-.897-.877v-.587c0-.485.402-.879.897-.879h17.323zM25.82 8.126l-.596.587a11.566 11.566 0 0 1-4.5-4.41l.6-.585a1.162 1.162 0 0 1 1.618 0l2.885 2.828c.44.44.437 1.145-.007 1.58zM48.6 30.07l-5.22-3.173V4.144C43.374 1.86 41.486.004 39.155 0h-8.962a4.264 4.264 0 0 0-2.838 1.07l-2.389 2.132-.746-.725a2.979 2.979 0 0 0-4.152 0l-1.553 1.505.287.584a13.4 13.4 0 0 0 6.17 6.028l.6.28 1.515-1.506a2.84 2.84 0 0 0 0-4.07l-.866-.848 2.336-2.072a2.463 2.463 0 0 1 1.636-.622h8.962c1.345 0 2.437 1.07 2.437 2.388v21.67l-2.562-1.558a5.145 5.145 0 0 0-2.677-.75h-9v-3.302h4.674a.888.888 0 0 0 .897-.88.888.888 0 0 0-.897-.878H20.876a.888.888 0 0 0-.897.879c0 .485.402.879.897.879h4.676V23.5h-4.145a3.315 3.315 0 0 1-1.79-.503l-15.14-9.465c-1.28-.804-2.984-.44-3.804.815l-.251.387a2.675 2.675 0 0 0 .854 3.718l16.016 9.955a5.14 5.14 0 0 0 2.748.815h.668v7.672h-2.914c-1.486 0-2.69 1.18-2.69 2.634v.587c0 1.455 1.204 2.635 2.69 2.635h17.323c1.484 0 2.688-1.18 2.688-2.635v-.587c0-1.454-1.204-2.634-2.688-2.634h-2.892v-7.672h3.443a3.3 3.3 0 0 1 1.706.468l8.363 4.978c1.319.749 3.004.31 3.766-.98a2.67 2.67 0 0 0-.878-3.618H48.6z"/></svg>