<svg xmlns="http://www.w3.org/2000/svg" width="64" height="64"><path fill-rule="evenodd" d="M59.731 10.372a1.095 1.095 0 0 0-.05-1.492l-4.582-4.597a1.13 1.13 0 0 0-1.495 0L50 7.899 56.076 14l3.655-3.628zM46.788 11L10 47.746 16.294 54 53 17.257 46.788 11zM7.483 52L5 59l7-2.538L7.483 52zM62.538 6.234a5.25 5.25 0 0 1 0 7.272l-5.101 5.034L17.6 58.41a2.45 2.45 0 0 1-1.161.623L2.65 63.913c-.2.07-.41.098-.622.083a2.042 2.042 0 0 1-1.46-.54 2.13 2.13 0 0 1-.47-2.088l5.076-14.184.083-.152c.082-.223.207-.426.372-.594L50.57 1.506a5.117 5.117 0 0 1 7.251 0l4.717 4.728z"/></svg>