<svg xmlns="http://www.w3.org/2000/svg" width="27" height="45"><path d="M2.622 2.2a.387.387 0 0 0-.361.36v6.615c0 .181.178.358.361.358h21.753c.18 0 .358-.177.358-.358V2.56c0-.18-.18-.36-.358-.36H7.742v3.64c0 .65-.475 1.13-1.128 1.13-.652 0-1.13-.48-1.13-1.13V2.2H5.36v4.89c0 .651-.477 1.13-1.13 1.13-.652 0-1.13-.48-1.13-1.13V2.2h-.478zm23.18 6.975a1.45 1.45 0 0 1-1.427 1.427H2.622a1.45 1.45 0 0 1-1.43-1.427V2.56c0-.77.658-1.43 1.43-1.43h1.546v5.96c0 .06 0 .061.062.061s.062 0 .062-.062V1.13h2.26v4.71c0 .061.001.062.062.062.06 0 .06 0 .06-.062V1.13h17.7c.77 0 1.428.66 1.428 1.43v6.615zm-11.86 20.204c.654 0 1.13.478 1.13 1.13 0 .655-.475 1.13-1.13 1.13H4.763v5.071h10.37c.542 0 1.018-.475 1.018-1.016v-16.21c0-.538-.477-1.014-1.019-1.014H4.764v5.309h9.177c.655 0 1.13.478 1.13 1.13 0 .653-.475 1.128-1.13 1.128H4.764v.544h9.177c.656 0 1.13.474 1.13 1.13 0 .651-.475 1.131-1.13 1.131H4.764v.537h9.177zm0 1.069H3.694v-2.675H13.94c.063 0 .062 0 .062-.061 0-.066.004-.062-.062-.062H3.695v-2.682h10.246c.065 0 .062.003.062-.059 0-.064.002-.062-.062-.062H3.695v-7.445h11.438c1.131 0 2.088.953 2.088 2.082v16.21c0 1.133-.955 2.085-2.088 2.085H3.697v-7.208H13.94c.065 0 .062.003.062-.062 0-.063.002-.061-.062-.061zM4.704 40.76c0 .684.556 1.254 1.254 1.254h15.076c.684 0 1.254-.557 1.254-1.254V11.737H4.705v4.475h10.428a3.265 3.265 0 0 1 3.278 3.273v16.152a3.267 3.267 0 0 1-3.278 3.273H4.705v1.85zm18.653 0a2.325 2.325 0 0 1-2.323 2.323H5.96a2.325 2.325 0 0 1-2.323-2.323v-2.92h11.497c1.22 0 2.21-.972 2.21-2.203V19.485a2.197 2.197 0 0 0-2.21-2.204H3.636v-6.612h19.722v30.09zM0 9.175V2.62C0 1.15 1.174 0 2.622 0h21.753c1.433 0 2.62 1.14 2.62 2.56v6.558a2.606 2.606 0 0 1-2.445 2.614V40.76a3.523 3.523 0 0 1-3.515 3.517H5.96a3.523 3.523 0 0 1-3.515-3.517V11.788A2.605 2.605 0 0 1 0 9.175zm24.375-8.106H2.622c-.863 0-1.553.676-1.553 1.55v6.556c0 .861.677 1.55 1.553 1.55h.89V40.76a2.455 2.455 0 0 0 2.447 2.448h15.076a2.455 2.455 0 0 0 2.447-2.448V10.669h.893c.859 0 1.55-.678 1.55-1.551V2.56c0-.82-.698-1.491-1.55-1.491z"/></svg>