<svg xmlns="http://www.w3.org/2000/svg" width="41" height="77"><path fill-rule="evenodd" d="M24.66 8.254c0-2.318-1.858-4.203-4.143-4.203-2.288 0-4.143 1.885-4.143 4.203 0 2.32 1.855 4.203 4.143 4.203 2.285 0 4.143-1.882 4.143-4.203zm-12.28 0C12.38 3.699 16.024 0 20.517 0c4.492 0 8.137 3.7 8.137 8.254 0 4.557-3.645 8.254-8.137 8.254-4.493 0-8.137-3.697-8.137-8.254zm6.124 64.695V53.18c0-1.117.895-2.025 1.996-2.025s1.998.908 1.998 2.025v19.769h3.721V47.318H14.802l-.021 25.63h3.723zm-7.717 2.024V27.405l-.89.978c-2.223 2.552-4.27 5.59-6.116 9.311-.495.998-1.7 1.4-2.682.897a2.043 2.043 0 0 1-.886-2.72c3.2-6.437 7.006-11.087 11.306-14.715 1.298-1.096 3.276-.154 3.274 1.56l-.023 20.546 11.439.005V22.714c0-1.688 1.927-2.636 3.233-1.59 4.848 3.882 8.665 8.809 11.377 14.816a2.041 2.041 0 0 1-.984 2.685 1.99 1.99 0 0 1-2.65-1c-1.532-3.397-3.444-6.394-5.726-9.013l-1.246-1.36v47.721c0 1.12-.895 2.027-1.996 2.027H12.785c-1.104 0-1.998-.908-1.998-2.027z"/></svg>