<svg xmlns="http://www.w3.org/2000/svg" width="31" height="55"><path fill-rule="evenodd" d="M9.59 37.321v-2.299c0-2.634.48-4.825 1.438-6.573.957-1.748 2.634-3.556 5.028-5.424 2.85-2.251 4.688-4 5.514-5.244.826-1.246 1.24-2.73 1.24-4.455 0-2.011-.671-3.556-2.012-4.633-1.341-1.078-3.269-1.617-5.783-1.617-2.275 0-4.383.324-6.322.97a44.88 44.88 0 0 0-5.676 2.335L0 4.059C4.861 1.353 10.07 0 15.625 0c4.694 0 8.418 1.15 11.172 3.448 2.753 2.3 4.13 5.472 4.13 9.52 0 1.795-.263 3.394-.79 4.795-.527 1.4-1.323 2.736-2.389 4.005-1.065 1.269-2.903 2.921-5.513 4.957-2.227 1.748-3.718 3.197-4.472 4.346-.755 1.15-1.132 2.694-1.132 4.634v1.616h-7.04zM8.119 48.78c0-3.616 1.76-5.424 5.28-5.424 1.724 0 3.042.473 3.952 1.419.91.946 1.364 2.28 1.364 4.005 0 1.7-.46 3.047-1.382 4.04-.922.995-2.233 1.492-3.934 1.492-1.7 0-3.005-.485-3.915-1.455-.91-.97-1.365-2.33-1.365-4.077z"/></svg>