<svg xmlns="http://www.w3.org/2000/svg" width="34" height="76"><path fill-rule="evenodd" d="M11.195 73.674c0 1.144.938 2.073 2.094 2.073a2.084 2.084 0 0 0 2.093-2.073V61.221h2.951v12.453c0 1.144.936 2.073 2.093 2.073 1.155 0 2.095-.929 2.095-2.073V61.221h9.098c1.34 0 2.339-1.232 2.045-2.526-2.186-9.58-6.417-18.392-12.44-26.513l-1.66-2.163 1.377-1.576a94.874 94.874 0 0 1 1.861-2.004l.564-.573 1.064 1.05a25.89 25.89 0 0 1 5.25 8.063 2.105 2.105 0 0 0 2.73 1.138 2.067 2.067 0 0 0 1.15-2.701c-1.88-4.562-4.823-8.598-8.946-12.012a2.113 2.113 0 0 0-2.824.124 98.331 98.331 0 0 0-3.978 4.162l-.955 1.093-.956-1.093a98.331 98.331 0 0 0-3.978-4.162 2.113 2.113 0 0 0-2.823-.124c-4.123 3.414-7.064 7.45-8.942 12.012a2.062 2.062 0 0 0 1.148 2.701 2.103 2.103 0 0 0 2.728-1.138 25.884 25.884 0 0 1 5.247-8.063l1.066-1.05.564.573c.634.663 1.254 1.33 1.86 2.004l1.379 1.576-1.658 2.163C6.466 40.303 2.235 49.115.052 58.695c-.294 1.294.702 2.526 2.045 2.526h9.098v12.453zM28.94 57.078H4.773l.67-2.295c2.24-7.137 5.743-13.84 10.426-20.154l.988-1.288.988 1.288c4.683 6.314 8.185 13.017 10.425 20.154l.67 2.295zM8.323 8.442c0 4.66 3.823 8.442 8.536 8.442 4.709 0 8.533-3.781 8.533-8.442C25.392 3.782 21.568 0 16.86 0c-4.713 0-8.536 3.782-8.536 8.442zm12.88 0c0 2.372-1.946 4.3-4.344 4.3-2.4 0-4.346-1.928-4.346-4.3s1.946-4.299 4.346-4.299c2.398 0 4.343 1.927 4.343 4.3z"/></svg>