<svg xmlns="http://www.w3.org/2000/svg" width="48" height="59"><path d="M5.468 51.544c-2.91 0-5.248-2.54-5.248-5.633V5.633C.22 2.54 2.558 0 5.468 0h37.056c2.91 0 5.248 2.54 5.248 5.633v40.278c0 3.093-2.339 5.633-5.248 5.633H29.208l-4.132 6.693c-.5.803-1.712.803-2.215-.003l-4.13-6.69H5.469zm22.896-1.512h14.16c2.045 0 3.736-1.836 3.736-4.12V5.632c0-2.285-1.69-4.121-3.736-4.121H5.468c-2.046 0-3.736 1.836-3.736 4.121V45.91c0 2.285 1.69 4.121 3.736 4.121h14.107l.222.36 4.173 6.76 4.394-7.12zm-1.008-.598c.244-.39.678-.636 1.114-.62h14.054c1.443 0 2.613-1.272 2.613-2.903V5.677c0-1.63-1.17-2.903-2.613-2.903H5.468c-1.443 0-2.613 1.272-2.613 2.903V45.91c0 1.63 1.17 2.902 2.613 2.902h13.988c.455-.008.885.234 1.131.628l3.375 5.505 3.394-5.512zm-21.888.89c-2.307 0-4.125-1.974-4.125-4.413V5.677c0-2.439 1.818-4.414 4.125-4.414h37.056c2.307 0 4.125 1.975 4.125 4.414V45.91c0 2.439-1.818 4.414-4.125 4.414H28.583l-4.624 7.508-.643-1.049-3.96-6.46H5.468zm8.937-10.238l.378-4.099c.12-.575.293-1.14.524-1.685 1.436-3.357 4.745-5.527 8.431-5.527 3.687 0 6.997 2.17 8.433 5.527.233.542.404 1.11.526 1.685l.373 4.099H14.405zm21.85 2.306c.026-.045.053-.084.073-.13.019-.044.033-.092.05-.138.016-.05.033-.096.048-.149.01-.045.014-.092.02-.137.008-.056.016-.11.017-.17 0-.01.005-.021.005-.034 0-.042-.01-.082-.012-.121-.005-.04 0-.08-.01-.12l-.508-4.951a13.25 13.25 0 0 0-.158-.991l-.016-.081c-.004-.036-.018-.069-.026-.103a11.672 11.672 0 0 0-.685-2.171c-1.928-4.505-6.369-7.417-11.315-7.417s-9.388 2.912-11.316 7.417c-.3.7-.524 1.428-.686 2.17-.008.035-.02.068-.029.104l-.01.08c-.067.329-.12.659-.16.992l-.51 4.951c-.004.04-.003.08-.006.12-.005.039-.013.08-.013.121 0 .013.004.024.004.034.001.06.01.114.018.17.005.045.011.093.02.137.01.053.03.1.047.15.015.046.026.096.05.136.02.047.046.086.07.131.024.044.048.089.076.13.032.04.065.077.098.115.033.035.061.074.097.11.038.033.08.064.119.097.039.028.075.059.116.087a.9.9 0 0 0 .134.07c.045.023.091.05.138.068.043.017.092.028.137.04.057.02.109.035.167.044a.153.153 0 0 0 .033.01c.082.014.166.02.246.02h22.321c.082 0 .165-.006.245-.019.016-.001.024-.006.035-.01a1.05 1.05 0 0 0 .167-.043c.045-.014.093-.023.135-.042a1.03 1.03 0 0 0 .142-.068c.042-.02.09-.042.13-.069.041-.026.078-.059.117-.087.04-.033.082-.064.12-.098.034-.034.064-.073.097-.109.033-.039.07-.075.098-.115.025-.042.045-.087.07-.13zM23.739 9.69a4.857 4.857 0 0 1 4.85 4.852 4.856 4.856 0 0 1-4.85 4.851 4.858 4.858 0 0 1-4.852-4.851 4.857 4.857 0 0 1 4.852-4.852zm0 12.808c4.386 0 7.956-3.57 7.956-7.956 0-4.39-3.57-7.957-7.956-7.957-4.388 0-7.956 3.57-7.956 7.957 0 4.386 3.57 7.956 7.956 7.956z"/></svg>